# xmcd
#
# Track frame offsets: 
#        150
#        21986
#        36929
#        49120
#        142838
#        164253
#        175747
#        193390
#        205514
#        213469
#        223258
#        236475
#        247094
#
# Disc length: 3434 seconds
#
# Revision: 0
# Processed by: cddbd v1.5.2PL0 Copyright (c) Steve Scherf et al.
# Submitted via: ExactAudioCopy v0.95b4
#
DISCID=c10d680d
DTITLE=Musicians Workshop - Learn To sing Bluegrass Harmony (Vol 1, CD
DTITLE=2)
DYEAR=2008
DGENRE=Bluegrass
TTITLE0=Don't That Road Look Rough and Rocky
TTITLE1=On My Way Back to the Old Home
TTITLE2=Hit Parade of Love
TTITLE3=Hit Parade of Love (how to figure out parts using guitar)
TTITLE4=Walking in Jerusalem Just Like John
TTITLE5=Chalk Up Another One
TTITLE6=Ocean of Diamonds
TTITLE7=This Heart of Mine
TTITLE8=The Man in the Middle
TTITLE9=Dark Hollow
TTITLE10=Will the Circle Be Unbroken
TTITLE11=I Saw the Light
TTITLE12=Salty Dog Blues
EXTD=
EXTT0=
EXTT1=
EXTT2=
EXTT3=
EXTT4=
EXTT5=
EXTT6=
EXTT7=
EXTT8=
EXTT9=
EXTT10=
EXTT11=
EXTT12=
PLAYORDER=
